# xmcd
#
# Track frame offsets:
#	150
#	16820
#	46988
#	64918
#	92358
#	111260
#	137635
#	159510
#	230993
#	249485
#
# Disc length: 3583 seconds
#
# Revision: 1
# Processed by: cddbd v1.5.2PL0 Copyright (c) Steve Scherf et al.
# Submitted via: audiograbber 1.83.01
#
DISCID=7f0dfd0a
DTITLE=John Lee Hooker - The Montreux Album
DYEAR=1990
DGENRE=Blues
TTITLE0=I'm So Lonely
TTITLE1=Mable
TTITLE2=I'm In The Mood
TTITLE3=Crawlin' Kingsnake
TTITLE4=Baby Lee
TTITLE5=It Serves Me Right To Suffer
TTITLE6=Boom Boom
TTITLE7=Boogie Chillun I
TTITLE8=The Healer
TTITLE9=Boogie Chillun II
EXTD=
EXTT0=
EXTT1=
EXTT2=
EXTT3=
EXTT4=
EXTT5=
EXTT6=
EXTT7=
EXTT8=
EXTT9=
PLAYORDER=
